# xmcd CD database file
#
# Track frame offsets:
#	150
#	19950
#	41737
#	60992
#	78380
#	99662
#	117887
#	134775
#	152062
#	168337
#	185437
#	201825
#	227387
#	249425
#	266137
#	288500
#
# Disc length: 4119 seconds
#
# Revision: 6
# Processed by: cddbd v1.5PL3 Copyright (c) Steve Scherf et al.
# Submitted via: CDex 1.51
#
DISCID=df101510
DTITLE=和田アキコ - SONG(S) for you
DYEAR=1900
DGENRE=
TTITLE0=今あなたにうたいたい
TTITLE1=やじろべえ
TTITLE2=だってしょうがないじゃない
TTITLE3=あの鐘を鳴らすのはあなた
TTITLE4=愛、とどきますか
TTITLE5=星空の孤独
TTITLE6=抱いてサンバナイト
TTITLE7=抱擁
TTITLE8=どしゃぶりの雨の中で
TTITLE9=コーラス・ガール
TTITLE10=よくやるね
TTITLE11=死ぬまで忘れへん
TTITLE12=もう一度ふたりで歌いたい
TTITLE13=逢いたいうちが華だから
TTITLE14=大阪へヴィーレイン
TTITLE15=抱かれ上手
EXTD=
EXTT0=
EXTT1=
EXTT2=
EXTT3=
EXTT4=
EXTT5=
EXTT6=
EXTT7=
EXTT8=
EXTT9=
EXTT10=
EXTT11=
EXTT12=
EXTT13=
EXTT14=
EXTT15=
PLAYORDER=
